/* XPM */
static char *_305c3ee7f1b4eb2d7fb9e1f0eb66ae5xwiEncWXHP7wwX38[] = {
/* columns rows colors chars-per-pixel */
"50 50 10 1 ",
"  c gray22",
". c gray83",
"X c #9D9D9D",
"o c white",
"O c #FBD8C5",
"+ c #E68652",
"@ c #B36F4A",
"# c #EABFA8",
"$ c #DCC41A",
"% c #CE838A",
/* pixels */
"                                                  ",
"                                                  ",
"                                                  ",
"    ..........   ..................   ........    ",
"   .XXXXXXXXXXX .XXXXXXXXXXXXXXXXXXX .XXXXXXXXX   ",
"   .XXXXXXXXXXX .XXXXXXXXXXXXXXXXXXX .XXXXXXXXX   ",
"   .XXXXXXXXXXX .XXXXXXXXXXXXXXXXXXX .XXXXXXXXX   ",
"   .XXXXXXXXXXX .XXXXXXXXXXXXXXXXXXX .XXXXXXXXX   ",
"   .XXXXXXXXXXX .XXXXXXXXXXXXXXXXXXX .XXXXXXXXX   ",
"   .XXXXXXXXXXX .XXXXXXXXXXXXXXXXXXX .XXXXXXXXX   ",
"    XXXXXXXXXX   XXXXXXXXXXXXXXXXXX   XXXXXXXX    ",
"                                                  ",
"    .................   ......................    ",
"   .XXXXXXXXXXXXXXXXXX .XXXXXXXXXXXXXXXXXXXXXXX   ",
"   .XXXXXXXXXXXXXXXXXX .XXXXXXXXXXXXXXXXXXXXXXX   ",
"   .XXXXXXXXXXXXXXXXXX .XXXXXXXXXXXXXXXXXXXXXXX   ",
"   .XXXXXXXXXXXXXXXXXX .XXXXXXXXXXXXXXXXXXXXXXX   ",
"   .XXXXXXXXXXXXXXXXXX .X     XXXXXXXXXXXXXXXXX   ",
"   .XXXXXXXXXXXXXXXXXX . ooooo XXXXXXXXXXXXXXXX   ",
"   .XXXXXXXXXXXXXXXXXX  ooooooo XXXXXXXXXXXXXXX   ",
"   .XXXXXXXXXXXXXXXXXX ooooooooo XXXXXXXXXXXXXX   ",
"   .XXXXXXXXXXXXXXXXX oooo   oooo XXXXXXXXXXXXX   ",
"    XXXXXXXXXXXXXXXXX oooo oooooo XXXXXXXXXXXX    ",
"                      oooo  ooooo                 ",
"    ......   ........ oooo oooooo ............    ",
"   .XXXXXXX .XXXXXXXX oooo   oooo XXXXXXXXXXXXX   ",
"   .XXXXXXX .XXXXXXXX oooooooooo XXXXXXXXXXXXXX   ",
"   .XXXXXXX .XOXXXXXX ooooooooo .XXXXXXXXXXXXXX   ",
"   .XXXXXXX .X+OXXXXX oooooooo  .XXXXXXXXXXXXXX   ",
"   .XXXXXXX .@+#OOXXX         X .XXXXXXXXXXXXXX   ",
"   .XXXXXXX .@++#oOXXXXXXXXXXXX .XXXXXXXXXXXXXX   ",
"   .XXXXXXX .@++#$OXXXXXXXXXXXX .XXXXXXXXXXXXXX   ",
"   .XXXXXXX .@+++##%XXXXXXXXXXX .XXXXXXXXXXXXXX   ",
"   .XXXXXXX .@+####OXXXXXXXXXXX .XXXXXXXXXXXXXX   ",
"   .XXXXXXX .@###@@XXXXXXXXXXXX .XXXXXXXXXXXXXX   ",
"    XXXXXX  @+##OXXXXXXXXXXXXX   XXXXXXXXXXXXX    ",
"       #O  @+##+O                                 ",
"    ..##O.@++#+#O   ..................   .....    ",
"   .X##OX@++####OX .XXXXXXXXXXXXXXXXXXX .XXXXXX   ",
"   .X#OXX@++###+OX .XXXXXXXXXXXXXXXXXXX .XXXXXX   ",
"   .X#OXX@++##++OX .XXXXXXXXXXXXXXXXXXX .XXXXXX   ",
"   .X#OXX@++#+##OX .XXXXXXXXXXXXXXXXXXX .XXXXXX   ",
"   .X#OXX@+O####OX .XXXXXXXXXXXXXXXXXXX .XXXXXX   ",
"   .XX#OX@+#O###OX .XXXXXXXXXXXXXXXXXXX .XXXXXX   ",
"   .XX@#X@+##O##OX .XXXXXXXXXXXXXXXXXXX .XXXXXX   ",
"   .XXX@+++##O##OX .XXXXXXXXXXXXXXXXXXX .XXXXXX   ",
"    XXXX@+++##O##O  XXXXXXXXXXXXXXXXXX   XXXXX    ",
"                                                  ",
"                                                  ",
"                                                  "
};
