/* XPM */
static char *b7350d8517fe4bcfc8f8e6756fecff06RafCLrxfRQVkAiYl[] = {
/* columns rows colors chars-per-pixel */
"50 50 7 1 ",
"  c gray22",
". c gray83",
"X c #9D9D9D",
"o c white",
"O c #A2ACAC",
"+ c #092424",
"@ c #364C4C",
/* pixels */
"                                                  ",
"                                                  ",
"                                                  ",
"    ..........   ..................   ........    ",
"   .XXXXXXXXXXX .XXXXXXXXXXXXXXXXXXX .XXXXXXXXX   ",
"   .XXXXXXXXXXX .XXXXXXXXXXXXXXXXXXX .XXXXXXXXX   ",
"   .XXXXXXXXXXX .XXXXXXXXXXXXXXXXXXX .XXXXXXXXX   ",
"   .XXXXXXXXXXX .XXXXXXXXXXXXXXXXXXX .XXXXXXXXX   ",
"   .XXXXXXXXXXX .XXXXXXXXXXXXXXXXXXX .XXXXXXXXX   ",
"   .XXXXXXXXXXX .XXXXXXXXXXXXXXXXXXX .XXXXXXXXX   ",
"    XXXXXXXXXX   XXXXXXXXXXXXXXXXXX   XXXXXXXX    ",
"                                                  ",
"    .................   ......................    ",
"   .XXXXXXXXXXXXXXXXXX .XXXXXXXXXXXXXXXXXXXXXXX   ",
"   .XXXXXXXXXXXXXXXXXX .XXXXXXXXXXXXXXXXXXXXXXX   ",
"   .XXXXXXXXXXXXXXXXXX .XXXXXXXXXXXXXXXXXXXXXXX   ",
"   .XXXXXXXXXXXXXXXXXX .XXXXXXXXXXXXXXXXXXXXXXX   ",
"   .XXXXXXXXXXXXXXXXXX .X     XXXXXXXXXXXXXXXXX   ",
"   .XXXXXXXXXXXXXXXXXX . ooooo XXXXXXXXXXXXXXXX   ",
"   .XXXXXXXXXXXXXXXXXX  ooooooo XXXXXXXXXXXXXXX   ",
"   .XXXXXXXXXXXXXXXXXX ooooooooo XXXXXXXXXXXXXX   ",
"   .XXXXXXXXXXXXXXXXX ooooooooooo XXXXXXXXXXXXX   ",
"    XXXXXXXXXXXXXXXXX ooo oo oooo XXXXXXXXXXXX    ",
"                      ooo  o oooo                 ",
"    ......   ........ ooo o  oooo ............    ",
"   .XXXXXXX .XXXXXXXX ooo oo oooo XXXXXXXXXXXXX   ",
"   .XXXXXXX .XXXXXXXXX oooooooooo XXXXXXXXXXXXX   ",
"   .XXXXXXX .XXXXXXXXXX ooooooooo XXXOXX+XXXXXX   ",
"   .XXXXXXX .XXXXXXXXXXX oooooooo XXO@XX@+XXXXX   ",
"   .XXXXXXX .XXXXXXXXXXXX         XO@@@@@@+XXXX   ",
"   .XXXXXXX .XXXXXXXXXXXXXXXXXX .XXO@@@O@@+XXXX   ",
"   .XXXXXXX .XXXXXXXXXXXXXXXXXX .XXO@@O@O@+XXXX   ",
"   .XXXXXXX .XXXXXXXXXXXXXXXXXX .XXO@O@@@O+XXXX   ",
"   .XXXXXXX .XXXXXXXXXXXXXXXXXX .XXX@@@@@+XXXXX   ",
"   .XXXXXXX .XXXXXXXXXXXXXXXXXX .XXXX+@@+XXO+XX   ",
"    XXXXXX   XXXXXXXXXXXXXXXXX   XXXO@@@++X@@+    ",
"                                    O@@O@+  @+    ",
"    .............   ................O@O@O+..@+    ",
"   .XXXXXXXXXXXXXX .XXXXXXXXXXXXXXXXO@@@@+XX@+X   ",
"   .XXXXXXXXXXXXXX .XXXXXXXXXXXXXXXXO@@@@+XX@+X   ",
"   .XXXXXXXXXXXXXX .XXXXXXXXXXXXXXXXO@@OO+XX@+X   ",
"   .XXXXXXXXXXXXXX .XXXXXXXXXXXXXXXXO@O@@+X@+XX   ",
"   .XXXXXXXXXXXXXX .XXXXXXXXXXXXXXXO@@@@@++@XXX   ",
"   .XXXXXXXXXXXXXX .XXXXXXXXXXXXXXO@@@@@@O@+XXX   ",
"   .XXXXXXXXXXXXXX .XXXXXXXXXXXXXXO@O@@@@@++XXX   ",
"   .XXXXXXXXXXXXXX .XXXXXXXXXXXXXXO@@O@+++@+XXX   ",
"    XXXXXXXXXXXXX   XXXXXXXXXXXXXO@@@@@@@@@++X    ",
"                                                  ",
"                                                  ",
"                                                  "
};
