/* XPM */
static char *result[] = {
/* columns rows colors chars-per-pixel */
"64 64 10 1 ",
"  c gray22",
". c gray83",
"X c #9D9D9D",
"o c white",
"O c #FFC090",
"+ c #DA7323",
"@ c #FF9440",
"# c gray99",
"$ c #B7FF40",
"% c #FFB0B0",
/* pixels */
"                                                                ",
"                                                                ",
"                                                                ",
"                                                                ",
"                                                                ",
"                                                                ",
"                                                                ",
"                                                                ",
"                                                                ",
"                                                                ",
"           ..........   ..................   ........           ",
"          .XXXXXXXXXXX .XXXXXXXXXXXXXXXXXXX .XXXXXXXXX          ",
"          .XXXXXXXXXXX .XXXXXXXXXXXXXXXXXXX .XXXXXXXXX          ",
"          .XXXXXXXXXXX .XXXXXXXXXXXXXXXXXXX .XXXXXXXXX          ",
"          .XXXXXXXXXXX .XXXXXXXXXXXXXXXXXXX .XXXXXXXXX          ",
"          .XXXXXXXXXXX .XXXXXXXXXXXXXXXXXXX .XXXXXXXXX          ",
"          .XXXXXXXXXXX .XXXXXXXXXXXXXXXXXXX .XXXXXXXXX          ",
"           XXXXXXXXXX   XXXXXXXXXXXXXXXXXX   XXXXXXXX           ",
"                                                                ",
"           .................   ......................           ",
"          .XXXXXXXXXXXXXXXXXX .XXXXXXXXXXXXXXXXXXXXXXX          ",
"          .XXXXXXXXXXXXXXXXXX .XXXXXXXXXXXXXXXXXXXXXXX          ",
"          .XXXXXXXXXXXXXXXXXX .XXXXXXXXXXXXXXXXXXXXXXX          ",
"          .XXXXXXXXXXXXXXXXXX .XXXXXXXXXXXXXXXXXXXXXXX          ",
"          .XXXXXXXXXXXXXXXXXX .X     XXXXXXXXXXXXXXXXX          ",
"          .XXXXXXXXXXXXXXXXXX . ooooo XXXXXXXXXXXXXXXX          ",
"          .XXXXXXXXXXXXXXXXXX  ooooooo XXXXXXXXXXXXXXX          ",
"          .XXXXXXXXXXXXXXXXXX ooooooooo XXXXXXXXXXXXXX          ",
"          .XXXXXXXXXXXXXXXXX oooo   oooo XXXXXXXXXXXXX          ",
"           XXXXXXXXXXXXXXXXX oooo oooooo XXXXXXXXXXXX           ",
"                             oooo   oooo                        ",
"           ......   ........ oooooo oooo ............           ",
"          .XXXXXXX .XXXXXXXX oooo   oooo XXXXXXXXXXXXX          ",
"          .XXXXXXX .XXXXXXXXX oooooooooo XXXXXXXXXXXXX          ",
"          .XXXXXXX .XXXXXXXXXX ooooooooo XXXOXX+XXXXXX          ",
"          .XXXXXXX .XXXXXXXXXXX oooooooo XXO@XX@+XXXXX          ",
"          .XXXXXXX .XXXXXXXXXXXX         XO@@@@@@+XXXX          ",
"          .XXXXXXX .XXXXXXXXXXXXXXXXXX .XXO@#@@#@+XXXX          ",
"          .XXXXXXX .XXXXXXXXXXXXXXXXXX .XXO@$@@$@+XXXX          ",
"          .XXXXXXX .XXXXXXXXXXXXXXXXXX .XXO@@%%@@+XXXX          ",
"          .XXXXXXX .XXXXXXXXXXXXXXXXXXO@XXX@@@@@@XXXXX          ",
"          .XXXXXXX .XXXXXXXXXXXXXXXXXO@@XXXX+@@+XXXXXX          ",
"           XXXXXX   XXXXXXXXXXXXXXXXXO@ XXXO@++++XXXX           ",
"                                     O@    O@@@@+               ",
"           .............   ..........O@....O@@@@+....           ",
"          .XXXXXXXXXXXXXX .XXXXXXXXXXO@XXXXO@@@@+XXXXX          ",
"          .XXXXXXXXXXXXXX .XXXXXXXXXXO@XXXXO@@@@+XXXXX          ",
"          .XXXXXXXXXXXXXX .XXXXXXXXXXX@@XXXO@@@@+XXXXX          ",
"          .XXXXXXXXXXXXXX .XXXXXXXXXXXX@@XXO@@@@+XXXXX          ",
"          .XXXXXXXXXXXXXX .XXXXXXXXXXXXX@@O@@+@@++XXXX          ",
"          .XXXXXXXXXXXXXX .XXXXXXXXXXXXXXO@@@+@@+++XXX          ",
"          .XXXXXXXXXXXXXX .XXXXXXXXXXXXXXO@@@+@@+++XXX          ",
"          .XXXXXXXXXXXXXX .XXXXXXXXXXXXXXO@@@+@@+++XXX          ",
"           XXXXXXXXXXXXX   XXXXXXXXXXXXXO@@@++@@++++X           ",
"                                                                ",
"                                                                ",
"                                                                ",
"                                                                ",
"                                                                ",
"                                                                ",
"                                                                ",
"                                                                ",
"                                                                ",
"                                                                "
};
