/* XPM */
static char *result[] = {
/* columns rows colors chars-per-pixel */
"64 64 10 1 ",
"  c gray22",
". c gray83",
"X c #9D9D9D",
"o c white",
"O c #644837",
"+ c #41352E",
"@ c #28180B",
"# c #6480A0",
"$ c #82401A",
"% c #6A5955",
/* pixels */
"                                                                ",
"                                                                ",
"                                                                ",
"                                                                ",
"                                                                ",
"                                                                ",
"                                                                ",
"                                                                ",
"                                                                ",
"                                                                ",
"           ..........   ..................   ........           ",
"          .XXXXXXXXXXX .XXXXXXXXXXXXXXXXXXX .XXXXXXXXX          ",
"          .XXXXXXXXXXX .XXXXXXXXXXXXXXXXXXX .XXXXXXXXX          ",
"          .XXXXXXXXXXX .XXXXXXXXXXXXXXXXXXX .XXXXXXXXX          ",
"          .XXXXXXXXXXX .XXXXXXXXXXXXXXXXXXX .XXXXXXXXX          ",
"          .XXXXXXXXXXX .XXXXXXXXXXXXXXXXXXX .XXXXXXXXX          ",
"          .XXXXXXXXXXX .XXXXXXXXXXXXXXXXXXX .XXXXXXXXX          ",
"           XXXXXXXXXX   XXXXXXXXXXXXXXXXXX   XXXXXXXX           ",
"                                                                ",
"           .................   ......................           ",
"          .XXXXXXXXXXXXXXXXXX .XXXXXXXXXXXXXXXXXXXXXXX          ",
"          .XXXXXXXXXXXXXXXXXX .XXXXXXXXXXXXXXXXXXXXXXX          ",
"          .XXXXXXXXXXXXXXXXXX .XXXXXXXXXXXXXXXXXXXXXXX          ",
"          .XXXXXXXXXXXXXXXXXX .XXXXXXXXXXXXXXXXXXXXXXX          ",
"          .XXXXXXXXXXXXXXXXXX .X     XXXXXXXXXXXXXXXXX          ",
"          .XXXXXXXXXXXXXXXXXX . ooooo XXXXXXXXXXXXXXXX          ",
"          .XXXXXXXXXXXXXXXXXX  ooooooo XXXXXXXXXXXXXXX          ",
"          .XXXXXXXXXXXXXXXXXX ooooooooo XXXXXXXXXXXXXX          ",
"          .XXXXXXXXXXXXXXXXX ooo ooo ooo XXXXXXXXXXXXX          ",
"           XXXXXXXXXXXXXXXXX ooo o o ooo XXXXXXXXXXXX           ",
"                             ooo o o ooo                        ",
"           ......   ........ ooo o o ooo ............           ",
"          .XXXXXXX .XXXXXXXX oooo o oooo XXXXXXXXXXXXX          ",
"          .XXXXXXX .XXXXXXXXX oooooooooo XXXXXXXXXXXXX          ",
"          .XXXXXXX .XXXXXXXXXX ooooooooo XXXXXOXXXXXXX          ",
"          .XXXXXXX .XXXXXXXXXXX oooooooo XXXXO+XXXXXXX          ",
"          .XXXXXXX .XXXXXXXXXXXX         XXOO++@XXXXXX          ",
"          .XXXXXXX .XXXXXXXXXXXXXXXXXX .XXOo+++@XXXXXX          ",
"          .XXXXXXX .XXXXXXXXXXXXXXXXXX .XXO#++$@XXXXXX          ",
"          .XXXXXXX .XXXXXXXXXXXXXXXXXX .X%+++$+@XXXXXX          ",
"          .XXXXXXX .XXXXXXXXXXXXXXXXXX .XO+++++@XXXXXX          ",
"          .XXXXXXX .XXXXXXXXXXXXXXXXXX .XX@@+++@XXXXXX          ",
"           XXXXXX   XXXXXXXXXXXXXXXXX   XXXXO+++@XXXX           ",
"                                            O++$+@  O+          ",
"           .............   .................O+$+++@.O++         ",
"          .XXXXXXXXXXXXXX .XXXXXXXXXXXXXXXXXO++++$+@XO++        ",
"          .XXXXXXXXXXXXXX .XXXXXXXXXXXXXXXXXO+++$++@XXO+        ",
"          .XXXXXXXXXXXXXX .XXXXXXXXXXXXXXXXXO++++++@XXO+        ",
"          .XXXXXXXXXXXXXX .XXXXXXXXXXXXXXXXXO++++++@XXO+        ",
"          .XXXXXXXXXXXXXX .XXXXXXXXXXXXXXXXXO++++OO@XXO+        ",
"          .XXXXXXXXXXXXXX .XXXXXXXXXXXXXXXXXO+++O++@XO+         ",
"          .XXXXXXXXXXXXXX .XXXXXXXXXXXXXXXXXO++O+++@X+@         ",
"          .XXXXXXXXXXXXXX .XXXXXXXXXXXXXXXXXO++O+++++@          ",
"           XXXXXXXXXXXXX   XXXXXXXXXXXXXXXXO++O+++++@           ",
"                                                                ",
"                                                                ",
"                                                                ",
"                                                                ",
"                                                                ",
"                                                                ",
"                                                                ",
"                                                                ",
"                                                                ",
"                                                                "
};
